<svg xmlns="http://www.w3.org/2000/svg" viewBox="0 0 400 300" width="100%" height="100%">
  <rect width="400" height="300" fill="#0A1128"/>
  <rect x="15" y="15" width="370" height="270" fill="none" stroke="#C5A880" stroke-width="1.5" opacity="0.3"/>
  <rect x="20" y="20" width="360" height="260" fill="none" stroke="#C5A880" stroke-width="0.75" opacity="0.15"/>
  
  <!-- Corner Accents -->
  <path d="M10 25 h15 M25 10 v15 M390 25 h-15 M375 10 v15 M10 275 h15 M25 290 v-15 M390 275 h-15 M375 290 v-15" stroke="#C5A880" stroke-width="1" fill="none" opacity="0.5"/>

  <!-- Logo Icon Vessel Outline -->
  <g transform="translate(160, 60)" stroke="#C5A880" stroke-width="1" fill="none" opacity="0.8">
    <path d="M10 50 L70 50 L80 30 L0 30 Z" />
    <rect x="20" y="10" width="40" height="20" />
    <path d="M40 0 L40 10" />
  </g>

  <!-- Typography -->
  <text x="200" y="170" fill="#FFFFFF" font-family="serif" font-size="16" font-weight="500" letter-spacing="1.5" text-anchor="middle">HASTAVA FREIGHT DESK</text>
  <text x="200" y="195" fill="#C5A880" font-family="sans-serif" font-size="10" font-weight="700" letter-spacing="2.5" text-anchor="middle">PORT &amp; TRANSIT LOGISTICS</text>
  <text x="200" y="225" fill="#FFFFFF" font-family="sans-serif" font-size="8" font-weight="400" opacity="0.5" letter-spacing="1" text-anchor="middle">DIRECT VESSEL BOOKINGS &amp; CUSTOM HOUSE BROKERAGE</text>
</svg>
